<?xml version="1.0" encoding="UTF-8"?>
<svg xmlns="http://www.w3.org/2000/svg" width="64" height="64" viewBox="0 0 64 64" fill="none">
  <rect x="2" y="2" width="60" height="60" rx="13" fill="#4F46E5"/>
  <g transform="translate(6 6) scale(2.15)" stroke="#FFFFFF" stroke-width="2" stroke-linecap="round" stroke-linejoin="round" fill="none">
    <path d="M21.42 10.922a1 1 0 0 0-.019-1.838L12.83 5.18a2 2 0 0 0-1.66 0L2.6 9.08a1 1 0 0 0 0 1.832l8.57 3.908a2 2 0 0 0 1.66 0z"/>
    <path d="M22 10v6"/>
    <path d="M6 12.5V16a6 3 0 0 0 12 0v-3.5"/>
  </g>
</svg>